<svg xmlns="http://www.w3.org/2000/svg" viewBox="0 0 24 24" width="24" height="24">
  <defs>
    <filter id="glow-bag" x="-50%" y="-50%" width="200%" height="200%">
      <feGaussianBlur stdDeviation="1" result="blur" />
      <feComposite in="SourceGraphic" in2="blur" operator="over" />
    </filter>
  </defs>
  <g fill="none" stroke="#fda9ff" stroke-width="2" stroke-linecap="round" stroke-linejoin="round" filter="url(#glow-bag)">
    <path d="M6 2L3 6v14a2 2 0 0 0 2 2h14a2 2 0 0 0 2-2V6l-3-4Z"/>
    <path d="M3 6h18M16 10a4 4 0 0 1-8 0"/>
    <path d="M12 14l1 2 2 .5-1.5 1.5.5 2-2-1-2 1 .5-2-1.5-1.5 2-.5z" fill="#f9bd22" stroke="none"/>
  </g>
</svg>