<svg xmlns="http://www.w3.org/2000/svg" viewBox="0 0 24 24" width="24" height="24">
  <defs>
    <filter id="glow-4x4" x="-50%" y="-50%" width="200%" height="200%">
      <feGaussianBlur stdDeviation="0.6" result="blur" />
      <feComposite in="SourceGraphic" in2="blur" operator="over" />
    </filter>
  </defs>
  <g fill="#9f8a9d">
    <!-- Row 1 -->
    <rect x="2" y="2" width="4" height="4" rx="0.8" fill="#fda9ff" filter="url(#glow-4x4)"/>
    <rect x="7.3" y="2" width="4" height="4" rx="0.8"/>
    <rect x="12.6" y="2" width="4" height="4" rx="0.8"/>
    <rect x="18" y="2" width="4" height="4" rx="0.8" fill="#fda9ff" filter="url(#glow-4x4)"/>
    <!-- Row 2 -->
    <rect x="2" y="7.3" width="4" height="4" rx="0.8"/>
    <rect x="7.3" y="7.3" width="4" height="4" rx="0.8"/>
    <rect x="12.6" y="7.3" width="4" height="4" rx="0.8"/>
    <rect x="18" y="7.3" width="4" height="4" rx="0.8"/>
    <!-- Row 3 -->
    <rect x="2" y="12.6" width="4" height="4" rx="0.8"/>
    <rect x="7.3" y="12.6" width="4" height="4" rx="0.8"/>
    <rect x="12.6" y="12.6" width="4" height="4" rx="0.8"/>
    <rect x="18" y="12.6" width="4" height="4" rx="0.8"/>
    <!-- Row 4 -->
    <rect x="2" y="18" width="4" height="4" rx="0.8" fill="#fda9ff" filter="url(#glow-4x4)"/>
    <rect x="7.3" y="18" width="4" height="4" rx="0.8"/>
    <rect x="12.6" y="18" width="4" height="4" rx="0.8"/>
    <rect x="18" y="18" width="4" height="4" rx="0.8" fill="#fda9ff" filter="url(#glow-4x4)"/>
  </g>
</svg>