<svg width="360" height="640" viewBox="0 0 360 640" xmlns="http://www.w3.org/2000/svg">
  <defs>
    <!-- Glow for Gold Score -->
    <filter id="gold-glow" x="-50%" y="-50%" width="200%" height="200%">
      <feGaussianBlur stdDeviation="6" result="blur" />
      <feComposite in="SourceGraphic" in2="blur" operator="over" />
    </filter>
    <!-- Glow for Primary -->
    <filter id="primary-glow" x="-50%" y="-50%" width="200%" height="200%">
      <feGaussianBlur stdDeviation="3" result="blur" />
      <feComposite in="SourceGraphic" in2="blur" operator="over" />
    </filter>
    <!-- Noise Texture -->
    <filter id="noise">
      <feTurbulence type="fractalNoise" baseFrequency="0.65" numOctaves="3" stitchTiles="stitch" />
      <feColorMatrix type="matrix" values="0 0 0 0 0  0 0 0 0 0  0 0 0 0 0  0 0 0 0.05 0" />
    </filter>
  </defs>

  <!-- Background -->
  <rect width="360" height="640" fill="#151028" />
  
  <!-- Subtle Cyber Grid -->
  <pattern id="grid" width="40" height="40" patternUnits="userSpaceOnUse">
    <path d="M 40 0 L 0 0 0 40" fill="none" stroke="#fda9ff" stroke-width="0.5" opacity="0.1" />
  </pattern>
  <rect width="360" height="640" fill="url(#grid)" />

  <!-- Gradient Orbs -->
  <circle cx="0" cy="0" r="150" fill="#c026d3" opacity="0.15" />
  <circle cx="360" cy="640" r="150" fill="#fda9ff" opacity="0.15" />

  <!-- Main Card Border -->
  <rect x="12" y="12" width="336" height="616" rx="24" fill="none" stroke="#fda9ff" stroke-width="1.5" opacity="0.6" filter="url(#primary-glow)" />

  <!-- Top Section -->
  <g transform="translate(30, 40)">
    <text font-family="Fredoka One, sans-serif" font-weight="900" font-size="24" fill="#ffffff">DTP</text>
    <rect y="28" width="45" height="4" fill="#c026d3" rx="2" />
  </g>
  <g transform="translate(260, 32)">
    <rect width="70" height="24" rx="12" fill="#c026d3" />
    <text x="35" y="16" font-family="Nunito, sans-serif" font-weight="700" font-size="10" fill="#ffffff" text-anchor="middle">EVOLVE</text>
  </g>

  <!-- Center Section -->
  <g transform="translate(180, 200)">
    <text font-family="Nunito, sans-serif" font-weight="800" font-size="12" fill="#fda9ff" text-anchor="middle" style="letter-spacing: 2px;">PERSONAL BEST</text>
    <text y="70" font-family="Fredoka One, sans-serif" font-weight="900" font-size="72" fill="#f9bd22" text-anchor="middle" filter="url(#gold-glow)">1,240,500</text>
    <text y="110" font-family="Nunito, sans-serif" font-weight="600" font-size="20" fill="#ffffff" text-anchor="middle">NEON_STALKER</text>
  </g>

  <!-- Stat Boxes -->
  <g transform="translate(180, 360)">
    <!-- Time -->
    <rect x="-105" width="100" height="45" rx="8" fill="#2c2640" stroke="#fda9ff" stroke-width="0.5" />
    <text x="-55" y="18" font-family="Nunito, sans-serif" font-size="10" fill="#fda9ff" text-anchor="middle">SURVIVAL</text>
    <text x="-55" y="36" font-family="Fredoka One, sans-serif" font-size="16" fill="#ffffff" text-anchor="middle">04:42.12</text>
    <!-- Speed -->
    <rect x="5" width="100" height="45" rx="8" fill="#2c2640" stroke="#fda9ff" stroke-width="0.5" />
    <text x="55" y="18" font-family="Nunito, sans-serif" font-size="10" fill="#fda9ff" text-anchor="middle">PEAK SPEED</text>
    <text x="55" y="36" font-family="Fredoka One, sans-serif" font-size="16" fill="#ffffff" text-anchor="middle">14.5m/s</text>
  </g>

  <!-- Bottom Section -->
  <g transform="translate(30, 480)">
    <!-- 3x3 Grid -->
    <rect x="0" y="0" width="18" height="18" fill="#ffffff" rx="2" />
    <rect x="22" y="0" width="18" height="18" fill="#fda9ff" rx="2" />
    <rect x="44" y="0" width="18" height="18" fill="#c026d3" rx="2" />
    <rect x="0" y="22" width="18" height="18" fill="#c026d3" rx="2" />
    <rect x="22" y="22" width="18" height="18" fill="#ffffff" rx="2" />
    <rect x="44" y="22" width="18" height="18" fill="#fda9ff" rx="2" />
    <rect x="0" y="44" width="18" height="18" fill="#fda9ff" rx="2" />
    <rect x="22" y="44" width="18" height="18" fill="#c026d3" rx="2" />
    <rect x="44" y="44" width="18" height="18" fill="#ffffff" rx="2" />

    <text x="75" y="35" font-family="Fredoka One, sans-serif" font-size="18" fill="#fda9ff">CAN YOU BEAT THIS?</text>
  </g>

  <!-- QR Placeholder -->
  <g transform="translate(280, 520)">
    <rect width="50" height="50" fill="#211c35" stroke="#fda9ff" stroke-width="1" />
    <rect x="5" y="5" width="40" height="40" fill="url(#grid)" />
  </g>

  <text x="180" y="615" font-family="Nunito, sans-serif" font-size="12" fill="#9f8a9d" text-anchor="middle">donttouchpurple.com</text>

  <!-- Noise Overlay -->
  <rect width="360" height="640" filter="url(#noise)" pointer-events="none" />
</svg>