<svg xmlns="http://www.w3.org/2000/svg" viewBox="0 0 24 24" width="24" height="24">
  <defs>
    <linearGradient id="void-grad" x1="0%" y1="0%" x2="100%" y2="100%">
      <stop offset="0%" stop-color="#c026d3" />
      <stop offset="100%" stop-color="#000000" />
    </linearGradient>
    <filter id="glow" x="-20%" y="-20%" width="140%" height="140%">
      <feGaussianBlur stdDeviation="1" result="blur" />
      <feComposite in="SourceGraphic" in2="blur" operator="over" />
    </filter>
  </defs>
  <rect x="3" y="3" width="18" height="18" rx="4" fill="none" stroke="#c026d3" stroke-width="1.5" filter="url(#glow)"/>
  <path d="M12 8c-2.2 0-4 1.8-4 4s1.8 4 4 4 4-1.8 4-4-1.8-4-4-4zm0 6c-1.1 0-2-.9-2-2s.9-2 2-2 2 .9 2 2-.9 2-2 2z" fill="url(#void-grad)" filter="url(#glow)"/>
  <path d="M12 10a2 2 0 1 0 0 4 2 2 0 0 0 0-4z" fill="#000" filter="url(#glow)"/>
</svg>