<svg xmlns="http://www.w3.org/2000/svg" viewBox="0 0 24 24" width="24" height="24">
  <defs>
    <linearGradient id="bossSlayerGrad" x1="0%" y1="0%" x2="0%" y2="100%">
      <stop offset="0%" stop-color="#ffb4ab" />
      <stop offset="100%" stop-color="#c026d3" />
    </linearGradient>
    <filter id="bossSlayerGlow" x="-50%" y="-50%" width="200%" height="200%">
      <feGaussianBlur stdDeviation="1.5" result="blur" />
      <feComposite in="SourceGraphic" in2="blur" operator="over" />
    </filter>
  </defs>
  <g fill="url(#bossSlayerGrad)" filter="url(#bossSlayerGlow)">
    <path d="M12 2c-4.42 0-8 3.58-8 8 0 3.2 1.88 5.95 4.59 7.22L7 22h10l-1.59-4.78C18.12 15.95 20 13.2 20 10c0-4.42-3.58-8-8-8zm-3 6a1.5 1.5 0 1 1 3 0 1.5 1.5 0 0 1-3 0zm6 0a1.5 1.5 0 1 1 3 0 1.5 1.5 0 0 1-3 0z"/>
    <path d="M10 5l4 4M9 13h6" stroke="#151028" stroke-width="1.5" stroke-linecap="round" opacity="0.6"/>
  </g>
</svg>