<svg xmlns="http://www.w3.org/2000/svg" viewBox="0 0 24 24" width="24" height="24">
  <defs>
    <linearGradient id="voidWalkerGrad" x1="0%" y1="0%" x2="100%" y2="100%">
      <stop offset="0%" stop-color="#fda9ff" />
      <stop offset="100%" stop-color="#c026d3" />
    </linearGradient>
    <filter id="voidWalkerGlow" x="-50%" y="-50%" width="200%" height="200%">
      <feGaussianBlur stdDeviation="1" result="blur" />
      <feComposite in="SourceGraphic" in2="blur" operator="over" />
    </filter>
  </defs>
  <g fill="none" stroke="url(#voidWalkerGrad)" stroke-width="1.5" filter="url(#voidWalkerGlow)">
    <ellipse cx="12" cy="12" rx="8" ry="10" stroke-dasharray="2 2"/>
    <path fill="url(#voidWalkerGrad)" d="M12 7c1.1 0 2 .9 2 2s-.9 2-2 2-2-.9-2-2 .9-2 2-2zM10 12h4l1 5-3-1-3 1 1-5z" stroke="none"/>
    <path d="M12 4c4.42 0 8 3.58 8 8s-3.58 8-8 8-8-3.58-8-8 3.58-8 8-8" opacity="0.3"/>
  </g>
</svg>